<?xml version="1.0" encoding="iso-8859-1"?>
<!-- Generator: Adobe Illustrator 18.0.0, SVG Export Plug-In . SVG Version: 6.00 Build 0)  -->
<!DOCTYPE svg PUBLIC "-//W3C//DTD SVG 1.1//EN" "http://www.w3.org/Graphics/SVG/1.1/DTD/svg11.dtd">
<svg version="1.1" id="Capa_1" xmlns="http://www.w3.org/2000/svg" xmlns:xlink="http://www.w3.org/1999/xlink" x="0px" y="0px"
	 viewBox="0 0 297 297" style="enable-background:new 0 0 297 297;" xml:space="preserve">
<path d="M281.346,202.737C277.872,140.813,231.86,90.065,172.13,79.315c0.859-2.521,1.332-5.22,1.332-8.027
	c0-13.764-11.198-24.961-24.962-24.961s-24.962,11.197-24.962,24.961c0,2.808,0.473,5.505,1.331,8.026
	C65.141,90.063,19.134,140.813,15.66,202.735C6.464,206.54,0,215.406,0,225.712c0,13.764,11.53,24.961,25.702,24.961h245.596
	c14.172,0,25.702-11.197,25.702-24.961C297,215.409,290.538,206.544,281.346,202.737z M142.576,71.288
	c0-3.266,2.657-5.923,5.924-5.923s5.924,2.657,5.924,5.923c0,3.267-2.657,5.924-5.924,5.924S142.576,74.555,142.576,71.288z
	 M148.5,96.25c59.666,0,108.774,46.064,113.626,104.5H34.874C39.726,142.314,88.834,96.25,148.5,96.25z M271.298,231.635H25.702
	c-3.611,0-6.664-2.713-6.664-5.923c0-3.211,3.053-5.924,6.664-5.924h245.596c3.611,0,6.664,2.713,6.664,5.924
	C277.962,228.922,274.909,231.635,271.298,231.635z"/>
<g>
</g>
<g>
</g>
<g>
</g>
<g>
</g>
<g>
</g>
<g>
</g>
<g>
</g>
<g>
</g>
<g>
</g>
<g>
</g>
<g>
</g>
<g>
</g>
<g>
</g>
<g>
</g>
<g>
</g>
</svg>
